<?xml version="1.0" encoding="UTF-8"?><svg xmlns="http://www.w3.org/2000/svg" xmlns:xlink="http://www.w3.org/1999/xlink" contentScriptType="text/ecmascript" width="375pt" zoomAndPan="magnify" contentStyleType="text/css" viewBox="0 0 375 374.999991" preserveAspectRatio="xMidYMid meet" version="1.2"><defs><clipPath xml:id="clip1" id="clip1"><path d="M 133 132 L 203 132 L 203 243.519531 L 133 243.519531 Z M 133 132 "/></clipPath><clipPath xml:id="clip2" id="clip2"><path d="M 196 157 L 242.285156 157 L 242.285156 243.519531 L 196 243.519531 Z M 196 157 "/></clipPath></defs><g xml:id="surface1" id="surface1"><path style=" stroke:none;fill-rule:nonzero;fill:rgb(1.179504%,59.609985%,61.959839%);fill-opacity:1;" d="M 111.027344 111.027344 L 264.027344 111.027344 L 264.027344 264.027344 L 111.027344 264.027344 Z M 111.027344 111.027344 "/><g clip-rule="nonzero" clip-path="url(#clip1)"><path style=" stroke:none;fill-rule:nonzero;fill:rgb(100%,100%,100%);fill-opacity:1;" d="M 202.582031 141.769531 C 202.675781 141.496094 202.757812 141.21875 202.820312 140.9375 C 202.882812 140.652344 202.925781 140.367188 202.957031 140.082031 C 202.984375 139.792969 202.996094 139.503906 202.992188 139.214844 C 202.984375 138.925781 202.964844 138.636719 202.921875 138.351562 C 202.882812 138.0625 202.828125 137.78125 202.753906 137.5 C 202.679688 137.222656 202.59375 136.945312 202.488281 136.675781 C 202.382812 136.40625 202.257812 136.144531 202.125 135.890625 C 201.988281 135.636719 201.835938 135.390625 201.667969 135.152344 C 201.503906 134.917969 201.324219 134.691406 201.132812 134.472656 C 200.9375 134.257812 200.734375 134.054688 200.519531 133.863281 C 200.300781 133.671875 200.074219 133.496094 199.835938 133.332031 C 199.597656 133.167969 199.351562 133.015625 199.097656 132.882812 C 198.839844 132.746094 198.578125 132.628906 198.308594 132.523438 C 198.039062 132.421875 197.765625 132.332031 197.484375 132.261719 C 197.207031 132.191406 196.921875 132.136719 196.636719 132.097656 C 196.347656 132.0625 196.0625 132.042969 195.773438 132.039062 L 181.492188 132.039062 C 180.601562 132.039062 179.714844 132.105469 178.832031 132.246094 C 177.949219 132.382812 177.085938 132.585938 176.234375 132.859375 C 175.386719 133.128906 174.5625 133.464844 173.761719 133.863281 C 172.964844 134.261719 172.199219 134.71875 171.472656 135.238281 C 170.746094 135.753906 170.0625 136.324219 169.421875 136.945312 C 168.78125 137.570312 168.191406 138.238281 167.65625 138.953125 C 167.117188 139.664062 166.640625 140.417969 166.21875 141.203125 C 165.796875 141.992188 165.4375 142.808594 165.144531 143.652344 L 133.636719 233.519531 C 133.542969 233.796875 133.460938 234.074219 133.398438 234.359375 C 133.335938 234.644531 133.292969 234.929688 133.261719 235.222656 C 133.234375 235.511719 133.222656 235.800781 133.230469 236.09375 C 133.234375 236.382812 133.257812 236.671875 133.300781 236.960938 C 133.339844 237.25 133.398438 237.535156 133.472656 237.816406 C 133.546875 238.097656 133.636719 238.371094 133.746094 238.644531 C 133.851562 238.914062 133.976562 239.175781 134.113281 239.433594 C 134.253906 239.6875 134.40625 239.933594 134.574219 240.171875 C 134.742188 240.410156 134.925781 240.636719 135.121094 240.851562 C 135.316406 241.066406 135.523438 241.269531 135.742188 241.460938 C 135.960938 241.652344 136.191406 241.828125 136.433594 241.992188 C 136.671875 242.15625 136.921875 242.304688 137.179688 242.4375 C 137.4375 242.570312 137.703125 242.6875 137.976562 242.792969 C 138.246094 242.894531 138.523438 242.976562 138.808594 243.046875 C 139.089844 243.117188 139.375 243.167969 139.664062 243.203125 C 139.953125 243.234375 140.242188 243.253906 140.53125 243.253906 L 159.464844 243.253906 C 160.582031 243.261719 161.671875 243.097656 162.738281 242.761719 C 163.804688 242.425781 164.792969 241.933594 165.703125 241.285156 C 166.613281 240.640625 167.40625 239.871094 168.074219 238.972656 C 168.746094 238.078125 169.261719 237.101562 169.625 236.046875 L 187.640625 184.714844 Z M 202.582031 141.769531 "/></g><g clip-rule="nonzero" clip-path="url(#clip2)"><path style=" stroke:none;fill-rule:nonzero;fill:rgb(100%,100%,100%);fill-opacity:1;" d="M 234.75 243.253906 C 235.039062 243.253906 235.328125 243.234375 235.617188 243.199219 C 235.902344 243.164062 236.1875 243.113281 236.46875 243.042969 C 236.753906 242.972656 237.027344 242.886719 237.300781 242.785156 C 237.570312 242.683594 237.835938 242.566406 238.09375 242.429688 C 238.351562 242.296875 238.601562 242.148438 238.839844 241.984375 C 239.078125 241.820312 239.308594 241.644531 239.527344 241.453125 C 239.746094 241.261719 239.953125 241.058594 240.148438 240.84375 C 240.34375 240.628906 240.523438 240.402344 240.691406 240.164062 C 240.859375 239.925781 241.011719 239.679688 241.148438 239.425781 C 241.289062 239.167969 241.410156 238.90625 241.515625 238.636719 C 241.625 238.367188 241.714844 238.089844 241.789062 237.808594 C 241.863281 237.527344 241.921875 237.242188 241.960938 236.957031 C 242 236.667969 242.023438 236.378906 242.03125 236.089844 C 242.035156 235.796875 242.023438 235.507812 241.996094 235.21875 C 241.96875 234.929688 241.921875 234.640625 241.859375 234.359375 C 241.796875 234.074219 241.71875 233.796875 241.621094 233.519531 L 215.644531 159.371094 C 215.476562 158.925781 215.195312 158.570312 214.808594 158.300781 C 214.417969 158.03125 213.984375 157.898438 213.511719 157.898438 C 213.035156 157.898438 212.605469 158.03125 212.214844 158.300781 C 211.824219 158.570312 211.542969 158.925781 211.375 159.371094 L 200.980469 188.90625 L 197.246094 199.601562 C 196.542969 201.613281 196.1875 203.683594 196.1875 205.8125 C 196.1875 207.945312 196.542969 210.015625 197.246094 212.027344 L 205.65625 236.066406 C 206.023438 237.121094 206.539062 238.097656 207.210938 238.988281 C 207.882812 239.882812 208.671875 240.652344 209.582031 241.296875 C 210.496094 241.941406 211.480469 242.429688 212.546875 242.765625 C 213.609375 243.097656 214.699219 243.261719 215.816406 243.253906 Z M 234.75 243.253906 "/></g></g></svg>